<svg id="visual" viewBox="0 0 900 600" width="900" height="600" xmlns="http://www.w3.org/2000/svg" xmlns:xlink="http://www.w3.org/1999/xlink" version="1.1"><g stroke-width="1" stroke-linejoin="bevel"><path d="M462 295L481 226L385 205Z" fill="#081d2e" stroke="#081d2e"></path><path d="M385 205L364 305L462 295Z" fill="#0b2133" stroke="#0b2133"></path><path d="M385 205L314 223L364 305Z" fill="#0b2133" stroke="#0b2133"></path><path d="M481 226L413 125L385 205Z" fill="#0b2133" stroke="#0b2133"></path><path d="M385 205L307 121L314 223Z" fill="#001122" stroke="#001122"></path><path d="M314 223L302 281L364 305Z" fill="#081d2e" stroke="#081d2e"></path><path d="M319 435L395 374L364 305Z" fill="#051929" stroke="#051929"></path><path d="M364 305L395 374L462 295Z" fill="#0d2435" stroke="#0d2435"></path><path d="M395 374L492 375L462 295Z" fill="#001122" stroke="#001122"></path><path d="M597 331L578 208L481 226Z" fill="#041627" stroke="#041627"></path><path d="M597 331L481 226L462 295Z" fill="#0d2435" stroke="#0d2435"></path><path d="M481 226L468 77L413 125Z" fill="#041627" stroke="#041627"></path><path d="M413 125L307 121L385 205Z" fill="#041627" stroke="#041627"></path><path d="M314 223L231 223L302 281Z" fill="#041627" stroke="#041627"></path><path d="M570 131L468 77L481 226Z" fill="#0b2133" stroke="#0b2133"></path><path d="M413 125L411 0L307 121Z" fill="#041627" stroke="#041627"></path><path d="M578 208L570 131L481 226Z" fill="#001122" stroke="#001122"></path><path d="M492 375L597 331L462 295Z" fill="#0a1f30" stroke="#0a1f30"></path><path d="M578 208L727 133L570 131Z" fill="#071b2c" stroke="#071b2c"></path><path d="M307 121L231 223L314 223Z" fill="#10283a" stroke="#10283a"></path><path d="M302 281L319 435L364 305Z" fill="#0b2133" stroke="#0b2133"></path><path d="M231 223L233 304L302 281Z" fill="#0a1f30" stroke="#0a1f30"></path><path d="M233 304L319 435L302 281Z" fill="#021424" stroke="#021424"></path><path d="M395 374L486 491L492 375Z" fill="#0b2133" stroke="#0b2133"></path><path d="M492 0L411 0L468 77Z" fill="#0a1f30" stroke="#0a1f30"></path><path d="M468 77L411 0L413 125Z" fill="#081d2e" stroke="#081d2e"></path><path d="M372 506L486 491L395 374Z" fill="#0e2638" stroke="#0e2638"></path><path d="M492 375L627 435L597 331Z" fill="#0b2133" stroke="#0b2133"></path><path d="M271 0L236 84L307 121Z" fill="#10283a" stroke="#10283a"></path><path d="M307 121L236 84L231 223Z" fill="#071b2c" stroke="#071b2c"></path><path d="M594 0L492 0L468 77Z" fill="#0a1f30" stroke="#0a1f30"></path><path d="M319 435L372 506L395 374Z" fill="#081d2e" stroke="#081d2e"></path><path d="M233 304L232 435L319 435Z" fill="#0a1f30" stroke="#0a1f30"></path><path d="M319 435L315 498L372 506Z" fill="#0a1f30" stroke="#0a1f30"></path><path d="M206 474L232 435L88 398Z" fill="#041627" stroke="#041627"></path><path d="M232 435L315 498L319 435Z" fill="#071b2c" stroke="#071b2c"></path><path d="M486 491L627 435L492 375Z" fill="#041627" stroke="#041627"></path><path d="M597 331L706 327L578 208Z" fill="#0e2638" stroke="#0e2638"></path><path d="M627 435L706 327L597 331Z" fill="#0d2435" stroke="#0d2435"></path><path d="M570 131L594 0L468 77Z" fill="#0d2435" stroke="#0d2435"></path><path d="M411 0L271 0L307 121Z" fill="#021424" stroke="#021424"></path><path d="M727 133L594 0L570 131Z" fill="#041627" stroke="#041627"></path><path d="M706 327L733 208L578 208Z" fill="#0e2638" stroke="#0e2638"></path><path d="M88 398L232 435L233 304Z" fill="#001122" stroke="#001122"></path><path d="M232 435L206 474L315 498Z" fill="#071b2c" stroke="#071b2c"></path><path d="M108 305L233 304L231 223Z" fill="#051929" stroke="#051929"></path><path d="M486 491L594 518L627 435Z" fill="#0d2435" stroke="#0d2435"></path><path d="M627 435L710 432L706 327Z" fill="#0a1f30" stroke="#0a1f30"></path><path d="M522 600L594 518L486 491Z" fill="#0e2638" stroke="#0e2638"></path><path d="M733 208L727 133L578 208Z" fill="#0b2133" stroke="#0b2133"></path><path d="M88 234L231 223L99 135Z" fill="#0d2435" stroke="#0d2435"></path><path d="M88 234L108 305L231 223Z" fill="#051929" stroke="#051929"></path><path d="M99 135L231 223L236 84Z" fill="#0a1f30" stroke="#0a1f30"></path><path d="M702 486L710 432L627 435Z" fill="#001122" stroke="#001122"></path><path d="M824 320L770 183L733 208Z" fill="#0d2435" stroke="#0d2435"></path><path d="M164 0L99 135L236 84Z" fill="#001122" stroke="#001122"></path><path d="M824 320L733 208L706 327Z" fill="#071b2c" stroke="#071b2c"></path><path d="M733 208L770 183L727 133Z" fill="#021424" stroke="#021424"></path><path d="M283 600L425 600L372 506Z" fill="#001122" stroke="#001122"></path><path d="M372 506L425 600L486 491Z" fill="#0d2435" stroke="#0d2435"></path><path d="M283 600L372 506L315 498Z" fill="#0b2133" stroke="#0b2133"></path><path d="M271 0L164 0L236 84Z" fill="#0d2435" stroke="#0d2435"></path><path d="M594 518L702 486L627 435Z" fill="#051929" stroke="#051929"></path><path d="M710 432L778 366L706 327Z" fill="#0b2133" stroke="#0b2133"></path><path d="M726 600L702 486L594 518Z" fill="#0e2638" stroke="#0e2638"></path><path d="M425 600L522 600L486 491Z" fill="#0d2435" stroke="#0d2435"></path><path d="M0 265L88 398L108 305Z" fill="#0e2638" stroke="#0e2638"></path><path d="M108 305L88 398L233 304Z" fill="#0b2133" stroke="#0b2133"></path><path d="M827 530L778 366L710 432Z" fill="#0d2435" stroke="#0d2435"></path><path d="M236 600L315 498L206 474Z" fill="#071b2c" stroke="#071b2c"></path><path d="M236 600L283 600L315 498Z" fill="#001122" stroke="#001122"></path><path d="M522 600L580 600L594 518Z" fill="#0a1f30" stroke="#0a1f30"></path><path d="M770 183L771 60L727 133Z" fill="#071b2c" stroke="#071b2c"></path><path d="M727 133L739 0L594 0Z" fill="#001122" stroke="#001122"></path><path d="M900 92L771 60L770 183Z" fill="#021424" stroke="#021424"></path><path d="M771 60L739 0L727 133Z" fill="#0a1f30" stroke="#0a1f30"></path><path d="M118 516L236 600L206 474Z" fill="#0a1f30" stroke="#0a1f30"></path><path d="M900 282L824 320L900 372Z" fill="#001122" stroke="#001122"></path><path d="M778 366L824 320L706 327Z" fill="#0a1f30" stroke="#0a1f30"></path><path d="M88 398L118 516L206 474Z" fill="#0a1f30" stroke="#0a1f30"></path><path d="M88 234L0 265L108 305Z" fill="#0a1f30" stroke="#0a1f30"></path><path d="M88 398L0 481L118 516Z" fill="#10283a" stroke="#10283a"></path><path d="M0 199L0 265L88 234Z" fill="#0e2638" stroke="#0e2638"></path><path d="M0 199L88 234L99 135Z" fill="#001122" stroke="#001122"></path><path d="M900 0L773 0L771 60Z" fill="#0d2435" stroke="#0d2435"></path><path d="M771 60L773 0L739 0Z" fill="#0e2638" stroke="#0e2638"></path><path d="M0 77L0 199L99 135Z" fill="#081d2e" stroke="#081d2e"></path><path d="M164 0L63 0L99 135Z" fill="#081d2e" stroke="#081d2e"></path><path d="M63 0L0 77L99 135Z" fill="#0e2638" stroke="#0e2638"></path><path d="M0 265L0 419L88 398Z" fill="#081d2e" stroke="#081d2e"></path><path d="M580 600L726 600L594 518Z" fill="#10283a" stroke="#10283a"></path><path d="M900 495L900 372L778 366Z" fill="#0b2133" stroke="#0b2133"></path><path d="M900 282L900 217L824 320Z" fill="#0b2133" stroke="#0b2133"></path><path d="M824 320L900 217L770 183Z" fill="#0e2638" stroke="#0e2638"></path><path d="M900 372L824 320L778 366Z" fill="#021424" stroke="#021424"></path><path d="M0 419L0 481L88 398Z" fill="#041627" stroke="#041627"></path><path d="M118 516L77 600L236 600Z" fill="#051929" stroke="#051929"></path><path d="M827 530L710 432L702 486Z" fill="#051929" stroke="#051929"></path><path d="M781 600L827 530L702 486Z" fill="#0a1f30" stroke="#0a1f30"></path><path d="M63 0L0 0L0 77Z" fill="#001122" stroke="#001122"></path><path d="M0 481L77 600L118 516Z" fill="#0e2638" stroke="#0e2638"></path><path d="M900 217L900 92L770 183Z" fill="#0b2133" stroke="#0b2133"></path><path d="M726 600L781 600L702 486Z" fill="#001122" stroke="#001122"></path><path d="M900 600L900 495L827 530Z" fill="#0d2435" stroke="#0d2435"></path><path d="M827 530L900 495L778 366Z" fill="#081d2e" stroke="#081d2e"></path><path d="M900 92L900 0L771 60Z" fill="#001122" stroke="#001122"></path><path d="M0 481L0 600L77 600Z" fill="#001122" stroke="#001122"></path><path d="M781 600L900 600L827 530Z" fill="#001122" stroke="#001122"></path></g></svg>